# xmcd CD database file
#
# Track frame offsets:
#	150
#	24377
#	37012
#	52820
#	72167
#	91662
#	118450
#	137575
#	152825
#	174550
#	191175
#	210825
#	225077
#	247260
#	261800
#
# Disc length: 3763 seconds
#
# Revision: 0
# Processed by: cddbd v1.5.1PL0 Copyright (c) Steve Scherf et al.
# Submitted via: CDex 1.51
#
DISCID=c70eb10f
DTITLE=中村由利子 - Intime アンティム
DYEAR=1900
DGENRE=New Age
TTITLE0=プレリュード
TTITLE1=ウィスパリング・アイズ
TTITLE2=ディア・グリーン・フィールド
TTITLE3=ファンタジア
TTITLE4=哀しみのラプソディー
TTITLE5=パストラル
TTITLE6=ウィンター・ロマンス
TTITLE7=バルカロール
TTITLE8=シルフィードの飛翔
TTITLE9=雨の薔薇
TTITLE10=霧のシャコンヌ
TTITLE11=風のエトランゼ
TTITLE12=青春のロンド
TTITLE13=若草の戯れのように
TTITLE14=誓い
EXTD=
EXTT0=
EXTT1=
EXTT2=
EXTT3=
EXTT4=
EXTT5=
EXTT6=
EXTT7=
EXTT8=
EXTT9=
EXTT10=
EXTT11=
EXTT12=
EXTT13=
EXTT14=
PLAYORDER=
